<?xml version="1.0" encoding="utf-8" standalone="no"?>
<!DOCTYPE svg PUBLIC "-//W3C//DTD SVG 1.1//EN"
  "http://www.w3.org/Graphics/SVG/1.1/DTD/svg11.dtd">
<svg xmlns:xlink="http://www.w3.org/1999/xlink" width="493.818125pt" height="325.986375pt" viewBox="0 0 493.818125 325.986375" xmlns="http://www.w3.org/2000/svg" version="1.1">
 <metadata>
  <rdf:RDF xmlns:dc="http://purl.org/dc/elements/1.1/" xmlns:cc="http://creativecommons.org/ns#" xmlns:rdf="http://www.w3.org/1999/02/22-rdf-syntax-ns#">
   <cc:Work>
    <dc:type rdf:resource="http://purl.org/dc/dcmitype/StillImage"/>
    <dc:date>2026-05-23T12:55:56.893863</dc:date>
    <dc:format>image/svg+xml</dc:format>
    <dc:creator>
     <cc:Agent>
      <dc:title>Matplotlib v3.9.2, https://matplotlib.org/</dc:title>
     </cc:Agent>
    </dc:creator>
   </cc:Work>
  </rdf:RDF>
 </metadata>
 <defs>
  <style type="text/css">*{stroke-linejoin: round; stroke-linecap: butt}</style>
 </defs>
 <g id="figure_1">
  <g id="patch_1">
   <path d="M 0 325.986375 
L 493.818125 325.986375 
L 493.818125 0 
L 0 0 
z
" style="fill: #ffffff"/>
  </g>
  <g id="axes_1">
   <g id="patch_2">
    <path d="M 51.378125 288.430125 
L 486.618125 288.430125 
L 486.618125 22.318125 
L 51.378125 22.318125 
z
" style="fill: #ffffff"/>
   </g>
   <g id="matplotlib.axis_1">
    <g id="xtick_1">
     <g id="line2d_1">
      <path d="M 71.094707 288.430125 
L 71.094707 22.318125 
" clip-path="url(#pb375dde3a2)" style="fill: none; stroke: #b0b0b0; stroke-opacity: 0.25; stroke-width: 0.8; stroke-linecap: square"/>
     </g>
     <g id="line2d_2">
      <defs>
       <path id="mb604fba58b" d="M 0 0 
L 0 3.5 
" style="stroke: #000000; stroke-width: 0.8"/>
      </defs>
      <g>
       <use xlink:href="#mb604fba58b" x="71.094707" y="288.430125" style="stroke: #000000; stroke-width: 0.8"/>
      </g>
     </g>
     <g id="text_1">
      <!-- 0 -->
      <g transform="translate(67.913457 303.028562) scale(0.1 -0.1)">
       <defs>
        <path id="DejaVuSans-30" d="M 2034 4250 
Q 1547 4250 1301 3770 
Q 1056 3291 1056 2328 
Q 1056 1369 1301 889 
Q 1547 409 2034 409 
Q 2525 409 2770 889 
Q 3016 1369 3016 2328 
Q 3016 3291 2770 3770 
Q 2525 4250 2034 4250 
z
M 2034 4750 
Q 2819 4750 3233 4129 
Q 3647 3509 3647 2328 
Q 3647 1150 3233 529 
Q 2819 -91 2034 -91 
Q 1250 -91 836 529 
Q 422 1150 422 2328 
Q 422 3509 836 4129 
Q 1250 4750 2034 4750 
z
" transform="scale(0.015625)"/>
       </defs>
       <use xlink:href="#DejaVuSans-30"/>
      </g>
     </g>
    </g>
    <g id="xtick_2">
     <g id="line2d_3">
      <path d="M 150.242663 288.430125 
L 150.242663 22.318125 
" clip-path="url(#pb375dde3a2)" style="fill: none; stroke: #b0b0b0; stroke-opacity: 0.25; stroke-width: 0.8; stroke-linecap: square"/>
     </g>
     <g id="line2d_4">
      <g>
       <use xlink:href="#mb604fba58b" x="150.242663" y="288.430125" style="stroke: #000000; stroke-width: 0.8"/>
      </g>
     </g>
     <g id="text_2">
      <!-- 20 -->
      <g transform="translate(143.880163 303.028562) scale(0.1 -0.1)">
       <defs>
        <path id="DejaVuSans-32" d="M 1228 531 
L 3431 531 
L 3431 0 
L 469 0 
L 469 531 
Q 828 903 1448 1529 
Q 2069 2156 2228 2338 
Q 2531 2678 2651 2914 
Q 2772 3150 2772 3378 
Q 2772 3750 2511 3984 
Q 2250 4219 1831 4219 
Q 1534 4219 1204 4116 
Q 875 4013 500 3803 
L 500 4441 
Q 881 4594 1212 4672 
Q 1544 4750 1819 4750 
Q 2544 4750 2975 4387 
Q 3406 4025 3406 3419 
Q 3406 3131 3298 2873 
Q 3191 2616 2906 2266 
Q 2828 2175 2409 1742 
Q 1991 1309 1228 531 
z
" transform="scale(0.015625)"/>
       </defs>
       <use xlink:href="#DejaVuSans-32"/>
       <use xlink:href="#DejaVuSans-30" x="63.623047"/>
      </g>
     </g>
    </g>
    <g id="xtick_3">
     <g id="line2d_5">
      <path d="M 229.390619 288.430125 
L 229.390619 22.318125 
" clip-path="url(#pb375dde3a2)" style="fill: none; stroke: #b0b0b0; stroke-opacity: 0.25; stroke-width: 0.8; stroke-linecap: square"/>
     </g>
     <g id="line2d_6">
      <g>
       <use xlink:href="#mb604fba58b" x="229.390619" y="288.430125" style="stroke: #000000; stroke-width: 0.8"/>
      </g>
     </g>
     <g id="text_3">
      <!-- 40 -->
      <g transform="translate(223.028119 303.028562) scale(0.1 -0.1)">
       <defs>
        <path id="DejaVuSans-34" d="M 2419 4116 
L 825 1625 
L 2419 1625 
L 2419 4116 
z
M 2253 4666 
L 3047 4666 
L 3047 1625 
L 3713 1625 
L 3713 1100 
L 3047 1100 
L 3047 0 
L 2419 0 
L 2419 1100 
L 313 1100 
L 313 1709 
L 2253 4666 
z
" transform="scale(0.015625)"/>
       </defs>
       <use xlink:href="#DejaVuSans-34"/>
       <use xlink:href="#DejaVuSans-30" x="63.623047"/>
      </g>
     </g>
    </g>
    <g id="xtick_4">
     <g id="line2d_7">
      <path d="M 308.538576 288.430125 
L 308.538576 22.318125 
" clip-path="url(#pb375dde3a2)" style="fill: none; stroke: #b0b0b0; stroke-opacity: 0.25; stroke-width: 0.8; stroke-linecap: square"/>
     </g>
     <g id="line2d_8">
      <g>
       <use xlink:href="#mb604fba58b" x="308.538576" y="288.430125" style="stroke: #000000; stroke-width: 0.8"/>
      </g>
     </g>
     <g id="text_4">
      <!-- 60 -->
      <g transform="translate(302.176076 303.028562) scale(0.1 -0.1)">
       <defs>
        <path id="DejaVuSans-36" d="M 2113 2584 
Q 1688 2584 1439 2293 
Q 1191 2003 1191 1497 
Q 1191 994 1439 701 
Q 1688 409 2113 409 
Q 2538 409 2786 701 
Q 3034 994 3034 1497 
Q 3034 2003 2786 2293 
Q 2538 2584 2113 2584 
z
M 3366 4563 
L 3366 3988 
Q 3128 4100 2886 4159 
Q 2644 4219 2406 4219 
Q 1781 4219 1451 3797 
Q 1122 3375 1075 2522 
Q 1259 2794 1537 2939 
Q 1816 3084 2150 3084 
Q 2853 3084 3261 2657 
Q 3669 2231 3669 1497 
Q 3669 778 3244 343 
Q 2819 -91 2113 -91 
Q 1303 -91 875 529 
Q 447 1150 447 2328 
Q 447 3434 972 4092 
Q 1497 4750 2381 4750 
Q 2619 4750 2861 4703 
Q 3103 4656 3366 4563 
z
" transform="scale(0.015625)"/>
       </defs>
       <use xlink:href="#DejaVuSans-36"/>
       <use xlink:href="#DejaVuSans-30" x="63.623047"/>
      </g>
     </g>
    </g>
    <g id="xtick_5">
     <g id="line2d_9">
      <path d="M 387.686532 288.430125 
L 387.686532 22.318125 
" clip-path="url(#pb375dde3a2)" style="fill: none; stroke: #b0b0b0; stroke-opacity: 0.25; stroke-width: 0.8; stroke-linecap: square"/>
     </g>
     <g id="line2d_10">
      <g>
       <use xlink:href="#mb604fba58b" x="387.686532" y="288.430125" style="stroke: #000000; stroke-width: 0.8"/>
      </g>
     </g>
     <g id="text_5">
      <!-- 80 -->
      <g transform="translate(381.324032 303.028562) scale(0.1 -0.1)">
       <defs>
        <path id="DejaVuSans-38" d="M 2034 2216 
Q 1584 2216 1326 1975 
Q 1069 1734 1069 1313 
Q 1069 891 1326 650 
Q 1584 409 2034 409 
Q 2484 409 2743 651 
Q 3003 894 3003 1313 
Q 3003 1734 2745 1975 
Q 2488 2216 2034 2216 
z
M 1403 2484 
Q 997 2584 770 2862 
Q 544 3141 544 3541 
Q 544 4100 942 4425 
Q 1341 4750 2034 4750 
Q 2731 4750 3128 4425 
Q 3525 4100 3525 3541 
Q 3525 3141 3298 2862 
Q 3072 2584 2669 2484 
Q 3125 2378 3379 2068 
Q 3634 1759 3634 1313 
Q 3634 634 3220 271 
Q 2806 -91 2034 -91 
Q 1263 -91 848 271 
Q 434 634 434 1313 
Q 434 1759 690 2068 
Q 947 2378 1403 2484 
z
M 1172 3481 
Q 1172 3119 1398 2916 
Q 1625 2713 2034 2713 
Q 2441 2713 2670 2916 
Q 2900 3119 2900 3481 
Q 2900 3844 2670 4047 
Q 2441 4250 2034 4250 
Q 1625 4250 1398 4047 
Q 1172 3844 1172 3481 
z
" transform="scale(0.015625)"/>
       </defs>
       <use xlink:href="#DejaVuSans-38"/>
       <use xlink:href="#DejaVuSans-30" x="63.623047"/>
      </g>
     </g>
    </g>
    <g id="xtick_6">
     <g id="line2d_11">
      <path d="M 466.834489 288.430125 
L 466.834489 22.318125 
" clip-path="url(#pb375dde3a2)" style="fill: none; stroke: #b0b0b0; stroke-opacity: 0.25; stroke-width: 0.8; stroke-linecap: square"/>
     </g>
     <g id="line2d_12">
      <g>
       <use xlink:href="#mb604fba58b" x="466.834489" y="288.430125" style="stroke: #000000; stroke-width: 0.8"/>
      </g>
     </g>
     <g id="text_6">
      <!-- 100 -->
      <g transform="translate(457.290739 303.028562) scale(0.1 -0.1)">
       <defs>
        <path id="DejaVuSans-31" d="M 794 531 
L 1825 531 
L 1825 4091 
L 703 3866 
L 703 4441 
L 1819 4666 
L 2450 4666 
L 2450 531 
L 3481 531 
L 3481 0 
L 794 0 
L 794 531 
z
" transform="scale(0.015625)"/>
       </defs>
       <use xlink:href="#DejaVuSans-31"/>
       <use xlink:href="#DejaVuSans-30" x="63.623047"/>
       <use xlink:href="#DejaVuSans-30" x="127.246094"/>
      </g>
     </g>
    </g>
    <g id="text_7">
     <!-- Senior principal loss / tranche notional (%) -->
     <g transform="translate(162.491094 316.706687) scale(0.1 -0.1)">
      <defs>
       <path id="DejaVuSans-53" d="M 3425 4513 
L 3425 3897 
Q 3066 4069 2747 4153 
Q 2428 4238 2131 4238 
Q 1616 4238 1336 4038 
Q 1056 3838 1056 3469 
Q 1056 3159 1242 3001 
Q 1428 2844 1947 2747 
L 2328 2669 
Q 3034 2534 3370 2195 
Q 3706 1856 3706 1288 
Q 3706 609 3251 259 
Q 2797 -91 1919 -91 
Q 1588 -91 1214 -16 
Q 841 59 441 206 
L 441 856 
Q 825 641 1194 531 
Q 1563 422 1919 422 
Q 2459 422 2753 634 
Q 3047 847 3047 1241 
Q 3047 1584 2836 1778 
Q 2625 1972 2144 2069 
L 1759 2144 
Q 1053 2284 737 2584 
Q 422 2884 422 3419 
Q 422 4038 858 4394 
Q 1294 4750 2059 4750 
Q 2388 4750 2728 4690 
Q 3069 4631 3425 4513 
z
" transform="scale(0.015625)"/>
       <path id="DejaVuSans-65" d="M 3597 1894 
L 3597 1613 
L 953 1613 
Q 991 1019 1311 708 
Q 1631 397 2203 397 
Q 2534 397 2845 478 
Q 3156 559 3463 722 
L 3463 178 
Q 3153 47 2828 -22 
Q 2503 -91 2169 -91 
Q 1331 -91 842 396 
Q 353 884 353 1716 
Q 353 2575 817 3079 
Q 1281 3584 2069 3584 
Q 2775 3584 3186 3129 
Q 3597 2675 3597 1894 
z
M 3022 2063 
Q 3016 2534 2758 2815 
Q 2500 3097 2075 3097 
Q 1594 3097 1305 2825 
Q 1016 2553 972 2059 
L 3022 2063 
z
" transform="scale(0.015625)"/>
       <path id="DejaVuSans-6e" d="M 3513 2113 
L 3513 0 
L 2938 0 
L 2938 2094 
Q 2938 2591 2744 2837 
Q 2550 3084 2163 3084 
Q 1697 3084 1428 2787 
Q 1159 2491 1159 1978 
L 1159 0 
L 581 0 
L 581 3500 
L 1159 3500 
L 1159 2956 
Q 1366 3272 1645 3428 
Q 1925 3584 2291 3584 
Q 2894 3584 3203 3211 
Q 3513 2838 3513 2113 
z
" transform="scale(0.015625)"/>
       <path id="DejaVuSans-69" d="M 603 3500 
L 1178 3500 
L 1178 0 
L 603 0 
L 603 3500 
z
M 603 4863 
L 1178 4863 
L 1178 4134 
L 603 4134 
L 603 4863 
z
" transform="scale(0.015625)"/>
       <path id="DejaVuSans-6f" d="M 1959 3097 
Q 1497 3097 1228 2736 
Q 959 2375 959 1747 
Q 959 1119 1226 758 
Q 1494 397 1959 397 
Q 2419 397 2687 759 
Q 2956 1122 2956 1747 
Q 2956 2369 2687 2733 
Q 2419 3097 1959 3097 
z
M 1959 3584 
Q 2709 3584 3137 3096 
Q 3566 2609 3566 1747 
Q 3566 888 3137 398 
Q 2709 -91 1959 -91 
Q 1206 -91 779 398 
Q 353 888 353 1747 
Q 353 2609 779 3096 
Q 1206 3584 1959 3584 
z
" transform="scale(0.015625)"/>
       <path id="DejaVuSans-72" d="M 2631 2963 
Q 2534 3019 2420 3045 
Q 2306 3072 2169 3072 
Q 1681 3072 1420 2755 
Q 1159 2438 1159 1844 
L 1159 0 
L 581 0 
L 581 3500 
L 1159 3500 
L 1159 2956 
Q 1341 3275 1631 3429 
Q 1922 3584 2338 3584 
Q 2397 3584 2469 3576 
Q 2541 3569 2628 3553 
L 2631 2963 
z
" transform="scale(0.015625)"/>
       <path id="DejaVuSans-20" transform="scale(0.015625)"/>
       <path id="DejaVuSans-70" d="M 1159 525 
L 1159 -1331 
L 581 -1331 
L 581 3500 
L 1159 3500 
L 1159 2969 
Q 1341 3281 1617 3432 
Q 1894 3584 2278 3584 
Q 2916 3584 3314 3078 
Q 3713 2572 3713 1747 
Q 3713 922 3314 415 
Q 2916 -91 2278 -91 
Q 1894 -91 1617 61 
Q 1341 213 1159 525 
z
M 3116 1747 
Q 3116 2381 2855 2742 
Q 2594 3103 2138 3103 
Q 1681 3103 1420 2742 
Q 1159 2381 1159 1747 
Q 1159 1113 1420 752 
Q 1681 391 2138 391 
Q 2594 391 2855 752 
Q 3116 1113 3116 1747 
z
" transform="scale(0.015625)"/>
       <path id="DejaVuSans-63" d="M 3122 3366 
L 3122 2828 
Q 2878 2963 2633 3030 
Q 2388 3097 2138 3097 
Q 1578 3097 1268 2742 
Q 959 2388 959 1747 
Q 959 1106 1268 751 
Q 1578 397 2138 397 
Q 2388 397 2633 464 
Q 2878 531 3122 666 
L 3122 134 
Q 2881 22 2623 -34 
Q 2366 -91 2075 -91 
Q 1284 -91 818 406 
Q 353 903 353 1747 
Q 353 2603 823 3093 
Q 1294 3584 2113 3584 
Q 2378 3584 2631 3529 
Q 2884 3475 3122 3366 
z
" transform="scale(0.015625)"/>
       <path id="DejaVuSans-61" d="M 2194 1759 
Q 1497 1759 1228 1600 
Q 959 1441 959 1056 
Q 959 750 1161 570 
Q 1363 391 1709 391 
Q 2188 391 2477 730 
Q 2766 1069 2766 1631 
L 2766 1759 
L 2194 1759 
z
M 3341 1997 
L 3341 0 
L 2766 0 
L 2766 531 
Q 2569 213 2275 61 
Q 1981 -91 1556 -91 
Q 1019 -91 701 211 
Q 384 513 384 1019 
Q 384 1609 779 1909 
Q 1175 2209 1959 2209 
L 2766 2209 
L 2766 2266 
Q 2766 2663 2505 2880 
Q 2244 3097 1772 3097 
Q 1472 3097 1187 3025 
Q 903 2953 641 2809 
L 641 3341 
Q 956 3463 1253 3523 
Q 1550 3584 1831 3584 
Q 2591 3584 2966 3190 
Q 3341 2797 3341 1997 
z
" transform="scale(0.015625)"/>
       <path id="DejaVuSans-6c" d="M 603 4863 
L 1178 4863 
L 1178 0 
L 603 0 
L 603 4863 
z
" transform="scale(0.015625)"/>
       <path id="DejaVuSans-73" d="M 2834 3397 
L 2834 2853 
Q 2591 2978 2328 3040 
Q 2066 3103 1784 3103 
Q 1356 3103 1142 2972 
Q 928 2841 928 2578 
Q 928 2378 1081 2264 
Q 1234 2150 1697 2047 
L 1894 2003 
Q 2506 1872 2764 1633 
Q 3022 1394 3022 966 
Q 3022 478 2636 193 
Q 2250 -91 1575 -91 
Q 1294 -91 989 -36 
Q 684 19 347 128 
L 347 722 
Q 666 556 975 473 
Q 1284 391 1588 391 
Q 1994 391 2212 530 
Q 2431 669 2431 922 
Q 2431 1156 2273 1281 
Q 2116 1406 1581 1522 
L 1381 1569 
Q 847 1681 609 1914 
Q 372 2147 372 2553 
Q 372 3047 722 3315 
Q 1072 3584 1716 3584 
Q 2034 3584 2315 3537 
Q 2597 3491 2834 3397 
z
" transform="scale(0.015625)"/>
       <path id="DejaVuSans-2f" d="M 1625 4666 
L 2156 4666 
L 531 -594 
L 0 -594 
L 1625 4666 
z
" transform="scale(0.015625)"/>
       <path id="DejaVuSans-74" d="M 1172 4494 
L 1172 3500 
L 2356 3500 
L 2356 3053 
L 1172 3053 
L 1172 1153 
Q 1172 725 1289 603 
Q 1406 481 1766 481 
L 2356 481 
L 2356 0 
L 1766 0 
Q 1100 0 847 248 
Q 594 497 594 1153 
L 594 3053 
L 172 3053 
L 172 3500 
L 594 3500 
L 594 4494 
L 1172 4494 
z
" transform="scale(0.015625)"/>
       <path id="DejaVuSans-68" d="M 3513 2113 
L 3513 0 
L 2938 0 
L 2938 2094 
Q 2938 2591 2744 2837 
Q 2550 3084 2163 3084 
Q 1697 3084 1428 2787 
Q 1159 2491 1159 1978 
L 1159 0 
L 581 0 
L 581 4863 
L 1159 4863 
L 1159 2956 
Q 1366 3272 1645 3428 
Q 1925 3584 2291 3584 
Q 2894 3584 3203 3211 
Q 3513 2838 3513 2113 
z
" transform="scale(0.015625)"/>
       <path id="DejaVuSans-28" d="M 1984 4856 
Q 1566 4138 1362 3434 
Q 1159 2731 1159 2009 
Q 1159 1288 1364 580 
Q 1569 -128 1984 -844 
L 1484 -844 
Q 1016 -109 783 600 
Q 550 1309 550 2009 
Q 550 2706 781 3412 
Q 1013 4119 1484 4856 
L 1984 4856 
z
" transform="scale(0.015625)"/>
       <path id="DejaVuSans-25" d="M 4653 2053 
Q 4381 2053 4226 1822 
Q 4072 1591 4072 1178 
Q 4072 772 4226 539 
Q 4381 306 4653 306 
Q 4919 306 5073 539 
Q 5228 772 5228 1178 
Q 5228 1588 5073 1820 
Q 4919 2053 4653 2053 
z
M 4653 2450 
Q 5147 2450 5437 2106 
Q 5728 1763 5728 1178 
Q 5728 594 5436 251 
Q 5144 -91 4653 -91 
Q 4153 -91 3862 251 
Q 3572 594 3572 1178 
Q 3572 1766 3864 2108 
Q 4156 2450 4653 2450 
z
M 1428 4353 
Q 1159 4353 1004 4120 
Q 850 3888 850 3481 
Q 850 3069 1003 2837 
Q 1156 2606 1428 2606 
Q 1700 2606 1854 2837 
Q 2009 3069 2009 3481 
Q 2009 3884 1853 4118 
Q 1697 4353 1428 4353 
z
M 4250 4750 
L 4750 4750 
L 1831 -91 
L 1331 -91 
L 4250 4750 
z
M 1428 4750 
Q 1922 4750 2215 4408 
Q 2509 4066 2509 3481 
Q 2509 2891 2217 2550 
Q 1925 2209 1428 2209 
Q 931 2209 642 2551 
Q 353 2894 353 3481 
Q 353 4063 643 4406 
Q 934 4750 1428 4750 
z
" transform="scale(0.015625)"/>
       <path id="DejaVuSans-29" d="M 513 4856 
L 1013 4856 
Q 1481 4119 1714 3412 
Q 1947 2706 1947 2009 
Q 1947 1309 1714 600 
Q 1481 -109 1013 -844 
L 513 -844 
Q 928 -128 1133 580 
Q 1338 1288 1338 2009 
Q 1338 2731 1133 3434 
Q 928 4138 513 4856 
z
" transform="scale(0.015625)"/>
      </defs>
      <use xlink:href="#DejaVuSans-53"/>
      <use xlink:href="#DejaVuSans-65" x="63.476562"/>
      <use xlink:href="#DejaVuSans-6e" x="125"/>
      <use xlink:href="#DejaVuSans-69" x="188.378906"/>
      <use xlink:href="#DejaVuSans-6f" x="216.162109"/>
      <use xlink:href="#DejaVuSans-72" x="277.34375"/>
      <use xlink:href="#DejaVuSans-20" x="318.457031"/>
      <use xlink:href="#DejaVuSans-70" x="350.244141"/>
      <use xlink:href="#DejaVuSans-72" x="413.720703"/>
      <use xlink:href="#DejaVuSans-69" x="454.833984"/>
      <use xlink:href="#DejaVuSans-6e" x="482.617188"/>
      <use xlink:href="#DejaVuSans-63" x="545.996094"/>
      <use xlink:href="#DejaVuSans-69" x="600.976562"/>
      <use xlink:href="#DejaVuSans-70" x="628.759766"/>
      <use xlink:href="#DejaVuSans-61" x="692.236328"/>
      <use xlink:href="#DejaVuSans-6c" x="753.515625"/>
      <use xlink:href="#DejaVuSans-20" x="781.298828"/>
      <use xlink:href="#DejaVuSans-6c" x="813.085938"/>
      <use xlink:href="#DejaVuSans-6f" x="840.869141"/>
      <use xlink:href="#DejaVuSans-73" x="902.050781"/>
      <use xlink:href="#DejaVuSans-73" x="954.150391"/>
      <use xlink:href="#DejaVuSans-20" x="1006.25"/>
      <use xlink:href="#DejaVuSans-2f" x="1038.037109"/>
      <use xlink:href="#DejaVuSans-20" x="1071.728516"/>
      <use xlink:href="#DejaVuSans-74" x="1103.515625"/>
      <use xlink:href="#DejaVuSans-72" x="1142.724609"/>
      <use xlink:href="#DejaVuSans-61" x="1183.837891"/>
      <use xlink:href="#DejaVuSans-6e" x="1245.117188"/>
      <use xlink:href="#DejaVuSans-63" x="1308.496094"/>
      <use xlink:href="#DejaVuSans-68" x="1363.476562"/>
      <use xlink:href="#DejaVuSans-65" x="1426.855469"/>
      <use xlink:href="#DejaVuSans-20" x="1488.378906"/>
      <use xlink:href="#DejaVuSans-6e" x="1520.166016"/>
      <use xlink:href="#DejaVuSans-6f" x="1583.544922"/>
      <use xlink:href="#DejaVuSans-74" x="1644.726562"/>
      <use xlink:href="#DejaVuSans-69" x="1683.935547"/>
      <use xlink:href="#DejaVuSans-6f" x="1711.71875"/>
      <use xlink:href="#DejaVuSans-6e" x="1772.900391"/>
      <use xlink:href="#DejaVuSans-61" x="1836.279297"/>
      <use xlink:href="#DejaVuSans-6c" x="1897.558594"/>
      <use xlink:href="#DejaVuSans-20" x="1925.341797"/>
      <use xlink:href="#DejaVuSans-28" x="1957.128906"/>
      <use xlink:href="#DejaVuSans-25" x="1996.142578"/>
      <use xlink:href="#DejaVuSans-29" x="2091.162109"/>
     </g>
    </g>
   </g>
   <g id="matplotlib.axis_2">
    <g id="ytick_1">
     <g id="line2d_13">
      <path d="M 51.378125 241.571926 
L 486.618125 241.571926 
" clip-path="url(#pb375dde3a2)" style="fill: none; stroke: #b0b0b0; stroke-opacity: 0.25; stroke-width: 0.8; stroke-linecap: square"/>
     </g>
     <g id="line2d_14">
      <defs>
       <path id="m731dccf345" d="M 0 0 
L -3.5 0 
" style="stroke: #000000; stroke-width: 0.8"/>
      </defs>
      <g>
       <use xlink:href="#m731dccf345" x="51.378125" y="241.571926" style="stroke: #000000; stroke-width: 0.8"/>
      </g>
     </g>
     <g id="text_8">
      <!-- $\mathdefault{10^{-4}}$ -->
      <g transform="translate(20.878125 245.371144) scale(0.1 -0.1)">
       <defs>
        <path id="DejaVuSans-2212" d="M 678 2272 
L 4684 2272 
L 4684 1741 
L 678 1741 
L 678 2272 
z
" transform="scale(0.015625)"/>
       </defs>
       <use xlink:href="#DejaVuSans-31" transform="translate(0 0.684375)"/>
       <use xlink:href="#DejaVuSans-30" transform="translate(63.623047 0.684375)"/>
       <use xlink:href="#DejaVuSans-2212" transform="translate(128.203125 38.965625) scale(0.7)"/>
       <use xlink:href="#DejaVuSans-34" transform="translate(186.855469 38.965625) scale(0.7)"/>
      </g>
     </g>
    </g>
    <g id="ytick_2">
     <g id="line2d_15">
      <path d="M 51.378125 154.216549 
L 486.618125 154.216549 
" clip-path="url(#pb375dde3a2)" style="fill: none; stroke: #b0b0b0; stroke-opacity: 0.25; stroke-width: 0.8; stroke-linecap: square"/>
     </g>
     <g id="line2d_16">
      <g>
       <use xlink:href="#m731dccf345" x="51.378125" y="154.216549" style="stroke: #000000; stroke-width: 0.8"/>
      </g>
     </g>
     <g id="text_9">
      <!-- $\mathdefault{10^{-3}}$ -->
      <g transform="translate(20.878125 158.015767) scale(0.1 -0.1)">
       <defs>
        <path id="DejaVuSans-33" d="M 2597 2516 
Q 3050 2419 3304 2112 
Q 3559 1806 3559 1356 
Q 3559 666 3084 287 
Q 2609 -91 1734 -91 
Q 1441 -91 1130 -33 
Q 819 25 488 141 
L 488 750 
Q 750 597 1062 519 
Q 1375 441 1716 441 
Q 2309 441 2620 675 
Q 2931 909 2931 1356 
Q 2931 1769 2642 2001 
Q 2353 2234 1838 2234 
L 1294 2234 
L 1294 2753 
L 1863 2753 
Q 2328 2753 2575 2939 
Q 2822 3125 2822 3475 
Q 2822 3834 2567 4026 
Q 2313 4219 1838 4219 
Q 1578 4219 1281 4162 
Q 984 4106 628 3988 
L 628 4550 
Q 988 4650 1302 4700 
Q 1616 4750 1894 4750 
Q 2613 4750 3031 4423 
Q 3450 4097 3450 3541 
Q 3450 3153 3228 2886 
Q 3006 2619 2597 2516 
z
" transform="scale(0.015625)"/>
       </defs>
       <use xlink:href="#DejaVuSans-31" transform="translate(0 0.765625)"/>
       <use xlink:href="#DejaVuSans-30" transform="translate(63.623047 0.765625)"/>
       <use xlink:href="#DejaVuSans-2212" transform="translate(128.203125 39.046875) scale(0.7)"/>
       <use xlink:href="#DejaVuSans-33" transform="translate(186.855469 39.046875) scale(0.7)"/>
      </g>
     </g>
    </g>
    <g id="ytick_3">
     <g id="line2d_17">
      <path d="M 51.378125 66.861172 
L 486.618125 66.861172 
" clip-path="url(#pb375dde3a2)" style="fill: none; stroke: #b0b0b0; stroke-opacity: 0.25; stroke-width: 0.8; stroke-linecap: square"/>
     </g>
     <g id="line2d_18">
      <g>
       <use xlink:href="#m731dccf345" x="51.378125" y="66.861172" style="stroke: #000000; stroke-width: 0.8"/>
      </g>
     </g>
     <g id="text_10">
      <!-- $\mathdefault{10^{-2}}$ -->
      <g transform="translate(20.878125 70.660391) scale(0.1 -0.1)">
       <use xlink:href="#DejaVuSans-31" transform="translate(0 0.765625)"/>
       <use xlink:href="#DejaVuSans-30" transform="translate(63.623047 0.765625)"/>
       <use xlink:href="#DejaVuSans-2212" transform="translate(128.203125 39.046875) scale(0.7)"/>
       <use xlink:href="#DejaVuSans-32" transform="translate(186.855469 39.046875) scale(0.7)"/>
      </g>
     </g>
    </g>
    <g id="ytick_4">
     <g id="line2d_19">
      <defs>
       <path id="mefd4c0af4c" d="M 0 0 
L -2 0 
" style="stroke: #000000; stroke-width: 0.6"/>
      </defs>
      <g>
       <use xlink:href="#mefd4c0af4c" x="51.378125" y="287.248195" style="stroke: #000000; stroke-width: 0.6"/>
      </g>
     </g>
    </g>
    <g id="ytick_5">
     <g id="line2d_20">
      <g>
       <use xlink:href="#mefd4c0af4c" x="51.378125" y="276.334125" style="stroke: #000000; stroke-width: 0.6"/>
      </g>
     </g>
    </g>
    <g id="ytick_6">
     <g id="line2d_21">
      <g>
       <use xlink:href="#mefd4c0af4c" x="51.378125" y="267.868514" style="stroke: #000000; stroke-width: 0.6"/>
      </g>
     </g>
    </g>
    <g id="ytick_7">
     <g id="line2d_22">
      <g>
       <use xlink:href="#mefd4c0af4c" x="51.378125" y="260.951607" style="stroke: #000000; stroke-width: 0.6"/>
      </g>
     </g>
    </g>
    <g id="ytick_8">
     <g id="line2d_23">
      <g>
       <use xlink:href="#mefd4c0af4c" x="51.378125" y="255.103445" style="stroke: #000000; stroke-width: 0.6"/>
      </g>
     </g>
    </g>
    <g id="ytick_9">
     <g id="line2d_24">
      <g>
       <use xlink:href="#mefd4c0af4c" x="51.378125" y="250.037536" style="stroke: #000000; stroke-width: 0.6"/>
      </g>
     </g>
    </g>
    <g id="ytick_10">
     <g id="line2d_25">
      <g>
       <use xlink:href="#mefd4c0af4c" x="51.378125" y="245.569088" style="stroke: #000000; stroke-width: 0.6"/>
      </g>
     </g>
    </g>
    <g id="ytick_11">
     <g id="line2d_26">
      <g>
       <use xlink:href="#mefd4c0af4c" x="51.378125" y="215.275337" style="stroke: #000000; stroke-width: 0.6"/>
      </g>
     </g>
    </g>
    <g id="ytick_12">
     <g id="line2d_27">
      <g>
       <use xlink:href="#mefd4c0af4c" x="51.378125" y="199.892819" style="stroke: #000000; stroke-width: 0.6"/>
      </g>
     </g>
    </g>
    <g id="ytick_13">
     <g id="line2d_28">
      <g>
       <use xlink:href="#mefd4c0af4c" x="51.378125" y="188.978748" style="stroke: #000000; stroke-width: 0.6"/>
      </g>
     </g>
    </g>
    <g id="ytick_14">
     <g id="line2d_29">
      <g>
       <use xlink:href="#mefd4c0af4c" x="51.378125" y="180.513137" style="stroke: #000000; stroke-width: 0.6"/>
      </g>
     </g>
    </g>
    <g id="ytick_15">
     <g id="line2d_30">
      <g>
       <use xlink:href="#mefd4c0af4c" x="51.378125" y="173.59623" style="stroke: #000000; stroke-width: 0.6"/>
      </g>
     </g>
    </g>
    <g id="ytick_16">
     <g id="line2d_31">
      <g>
       <use xlink:href="#mefd4c0af4c" x="51.378125" y="167.748068" style="stroke: #000000; stroke-width: 0.6"/>
      </g>
     </g>
    </g>
    <g id="ytick_17">
     <g id="line2d_32">
      <g>
       <use xlink:href="#mefd4c0af4c" x="51.378125" y="162.682159" style="stroke: #000000; stroke-width: 0.6"/>
      </g>
     </g>
    </g>
    <g id="ytick_18">
     <g id="line2d_33">
      <g>
       <use xlink:href="#mefd4c0af4c" x="51.378125" y="158.213712" style="stroke: #000000; stroke-width: 0.6"/>
      </g>
     </g>
    </g>
    <g id="ytick_19">
     <g id="line2d_34">
      <g>
       <use xlink:href="#mefd4c0af4c" x="51.378125" y="127.91996" style="stroke: #000000; stroke-width: 0.6"/>
      </g>
     </g>
    </g>
    <g id="ytick_20">
     <g id="line2d_35">
      <g>
       <use xlink:href="#mefd4c0af4c" x="51.378125" y="112.537442" style="stroke: #000000; stroke-width: 0.6"/>
      </g>
     </g>
    </g>
    <g id="ytick_21">
     <g id="line2d_36">
      <g>
       <use xlink:href="#mefd4c0af4c" x="51.378125" y="101.623371" style="stroke: #000000; stroke-width: 0.6"/>
      </g>
     </g>
    </g>
    <g id="ytick_22">
     <g id="line2d_37">
      <g>
       <use xlink:href="#mefd4c0af4c" x="51.378125" y="93.157761" style="stroke: #000000; stroke-width: 0.6"/>
      </g>
     </g>
    </g>
    <g id="ytick_23">
     <g id="line2d_38">
      <g>
       <use xlink:href="#mefd4c0af4c" x="51.378125" y="86.240853" style="stroke: #000000; stroke-width: 0.6"/>
      </g>
     </g>
    </g>
    <g id="ytick_24">
     <g id="line2d_39">
      <g>
       <use xlink:href="#mefd4c0af4c" x="51.378125" y="80.392691" style="stroke: #000000; stroke-width: 0.6"/>
      </g>
     </g>
    </g>
    <g id="ytick_25">
     <g id="line2d_40">
      <g>
       <use xlink:href="#mefd4c0af4c" x="51.378125" y="75.326783" style="stroke: #000000; stroke-width: 0.6"/>
      </g>
     </g>
    </g>
    <g id="ytick_26">
     <g id="line2d_41">
      <g>
       <use xlink:href="#mefd4c0af4c" x="51.378125" y="70.858335" style="stroke: #000000; stroke-width: 0.6"/>
      </g>
     </g>
    </g>
    <g id="ytick_27">
     <g id="line2d_42">
      <g>
       <use xlink:href="#mefd4c0af4c" x="51.378125" y="40.564583" style="stroke: #000000; stroke-width: 0.6"/>
      </g>
     </g>
    </g>
    <g id="ytick_28">
     <g id="line2d_43">
      <g>
       <use xlink:href="#mefd4c0af4c" x="51.378125" y="25.182065" style="stroke: #000000; stroke-width: 0.6"/>
      </g>
     </g>
    </g>
    <g id="text_11">
     <!-- P(tranche loss &gt;= x) -->
     <g transform="translate(14.798438 207.297562) rotate(-90) scale(0.1 -0.1)">
      <defs>
       <path id="DejaVuSans-50" d="M 1259 4147 
L 1259 2394 
L 2053 2394 
Q 2494 2394 2734 2622 
Q 2975 2850 2975 3272 
Q 2975 3691 2734 3919 
Q 2494 4147 2053 4147 
L 1259 4147 
z
M 628 4666 
L 2053 4666 
Q 2838 4666 3239 4311 
Q 3641 3956 3641 3272 
Q 3641 2581 3239 2228 
Q 2838 1875 2053 1875 
L 1259 1875 
L 1259 0 
L 628 0 
L 628 4666 
z
" transform="scale(0.015625)"/>
       <path id="DejaVuSans-3e" d="M 678 3150 
L 678 3719 
L 4684 2266 
L 4684 1747 
L 678 294 
L 678 863 
L 3897 2003 
L 678 3150 
z
" transform="scale(0.015625)"/>
       <path id="DejaVuSans-3d" d="M 678 2906 
L 4684 2906 
L 4684 2381 
L 678 2381 
L 678 2906 
z
M 678 1631 
L 4684 1631 
L 4684 1100 
L 678 1100 
L 678 1631 
z
" transform="scale(0.015625)"/>
       <path id="DejaVuSans-78" d="M 3513 3500 
L 2247 1797 
L 3578 0 
L 2900 0 
L 1881 1375 
L 863 0 
L 184 0 
L 1544 1831 
L 300 3500 
L 978 3500 
L 1906 2253 
L 2834 3500 
L 3513 3500 
z
" transform="scale(0.015625)"/>
      </defs>
      <use xlink:href="#DejaVuSans-50"/>
      <use xlink:href="#DejaVuSans-28" x="60.302734"/>
      <use xlink:href="#DejaVuSans-74" x="99.316406"/>
      <use xlink:href="#DejaVuSans-72" x="138.525391"/>
      <use xlink:href="#DejaVuSans-61" x="179.638672"/>
      <use xlink:href="#DejaVuSans-6e" x="240.917969"/>
      <use xlink:href="#DejaVuSans-63" x="304.296875"/>
      <use xlink:href="#DejaVuSans-68" x="359.277344"/>
      <use xlink:href="#DejaVuSans-65" x="422.65625"/>
      <use xlink:href="#DejaVuSans-20" x="484.179688"/>
      <use xlink:href="#DejaVuSans-6c" x="515.966797"/>
      <use xlink:href="#DejaVuSans-6f" x="543.75"/>
      <use xlink:href="#DejaVuSans-73" x="604.931641"/>
      <use xlink:href="#DejaVuSans-73" x="657.03125"/>
      <use xlink:href="#DejaVuSans-20" x="709.130859"/>
      <use xlink:href="#DejaVuSans-3e" x="740.917969"/>
      <use xlink:href="#DejaVuSans-3d" x="824.707031"/>
      <use xlink:href="#DejaVuSans-20" x="908.496094"/>
      <use xlink:href="#DejaVuSans-78" x="940.283203"/>
      <use xlink:href="#DejaVuSans-29" x="999.462891"/>
     </g>
    </g>
   </g>
   <g id="line2d_44">
    <path d="M 71.161761 34.414125 
L 71.540823 34.4787 
L 71.61112 34.673088 
L 72.269364 34.738106 
L 72.319041 34.933831 
L 72.657931 34.999298 
L 72.687831 35.130571 
L 73.04883 35.196379 
L 73.04883 35.2623 
L 73.633865 35.328337 
L 73.633865 35.394489 
L 74.4663 35.460756 
L 74.4663 35.527139 
L 74.725345 35.593638 
L 74.79927 35.726988 
L 74.937829 35.793839 
L 75.046328 35.927896 
L 75.287183 35.995102 
L 75.287183 36.062428 
L 75.617245 36.129873 
L 75.667452 36.265124 
L 75.917366 36.332931 
L 75.917366 36.400859 
L 76.142215 36.46891 
L 76.142215 36.537082 
L 76.498087 36.605377 
L 76.520147 36.742338 
L 76.882787 36.811004 
L 76.956049 37.01775 
L 77.598048 37.086917 
L 77.63115 37.22563 
L 78.216563 37.295177 
L 78.216563 37.364852 
L 78.707666 37.434655 
L 78.707666 37.504587 
L 79.030775 37.574648 
L 79.105054 37.715159 
L 80.395939 37.78561 
L 80.395939 37.856192 
L 81.232565 37.926906 
L 81.232565 37.997752 
L 81.616277 38.068731 
L 81.616277 38.139842 
L 82.405249 38.211087 
L 82.405249 38.282466 
L 82.658368 38.35398 
L 82.735361 38.569333 
L 83.41367 38.64139 
L 83.41367 38.713584 
L 83.746631 38.785916 
L 83.777095 38.930994 
L 84.334389 39.003742 
L 84.334389 39.076629 
L 85.112681 39.149657 
L 85.112681 39.222826 
L 85.906302 39.296136 
L 85.919574 39.443183 
L 86.439885 39.51692 
L 86.445278 39.664827 
L 86.784442 39.738997 
L 86.784442 39.813312 
L 87.784261 39.887773 
L 87.784261 39.962381 
L 88.779983 40.037135 
L 88.783087 40.187088 
L 89.112496 40.262287 
L 89.112496 40.337636 
L 89.576753 40.413134 
L 89.576753 40.488783 
L 90.297825 40.564583 
L 90.311158 40.716639 
L 91.192871 40.792897 
L 91.250044 40.945872 
L 91.40952 41.022592 
L 91.40952 41.099468 
L 92.107057 41.176499 
L 92.107057 41.253687 
L 92.489344 41.331033 
L 92.489344 41.408536 
L 93.379125 41.486198 
L 93.379125 41.56402 
L 93.802438 41.642001 
L 93.802438 41.720143 
L 94.360074 41.798447 
L 94.360074 41.876912 
L 94.978129 41.95554 
L 94.978129 42.034331 
L 95.580091 42.113286 
L 95.580091 42.192406 
L 95.75629 42.271691 
L 95.75629 42.351143 
L 96.161448 42.430761 
L 96.161448 42.510546 
L 96.951845 42.5905 
L 96.951845 42.670622 
L 98.065114 42.750914 
L 98.065114 42.831376 
L 98.481116 42.91201 
L 98.481116 42.992815 
L 98.852591 43.073792 
L 98.852591 43.154943 
L 99.68589 43.236268 
L 99.68589 43.317767 
L 100.37095 43.399442 
L 100.445979 43.563321 
L 100.565603 43.645527 
L 100.565603 43.727911 
L 101.297285 43.810475 
L 101.297285 43.893218 
L 101.664049 43.976143 
L 101.664049 44.059249 
L 102.028731 44.142538 
L 102.028731 44.22601 
L 102.259177 44.309666 
L 102.333139 44.477533 
L 103.334046 44.561746 
L 103.334046 44.646146 
L 104.436871 44.730735 
L 104.436871 44.815513 
L 105.356176 44.90048 
L 105.356176 44.985638 
L 105.715886 45.070988 
L 105.805533 45.242266 
L 106.710762 45.328195 
L 106.710762 45.41432 
L 107.432392 45.500641 
L 107.432392 45.587159 
L 109.009085 45.673874 
L 109.009085 45.760788 
L 109.98474 45.847902 
L 110.038618 46.022731 
L 110.768652 46.110449 
L 110.768652 46.19837 
L 110.947308 46.286496 
L 110.97668 46.463363 
L 112.160073 46.552107 
L 112.262153 46.730219 
L 112.40099 46.81959 
L 112.40099 46.909172 
L 112.793905 46.998966 
L 112.793905 47.088974 
L 113.224006 47.179195 
L 113.224006 47.269631 
L 114.098966 47.360283 
L 114.098966 47.451152 
L 114.294442 47.54224 
L 114.294442 47.633547 
L 114.609813 47.725074 
L 114.609813 47.816822 
L 114.832604 47.908793 
L 114.832604 48.000988 
L 115.864361 48.093407 
L 115.864361 48.186051 
L 116.438408 48.278923 
L 116.438408 48.372022 
L 117.349309 48.46535 
L 117.349309 48.558909 
L 117.618752 48.652699 
L 117.618752 48.746721 
L 118.859685 48.840977 
L 118.859685 48.935467 
L 119.383668 49.030194 
L 119.383668 49.125157 
L 120.400384 49.220359 
L 120.406228 49.411483 
L 120.5567 49.507407 
L 120.627358 49.796643 
L 122.78847 49.893547 
L 122.78847 49.9907 
L 123.43334 50.088102 
L 123.43334 50.185754 
L 124.345977 50.283658 
L 124.345977 50.381816 
L 124.991346 50.480229 
L 124.991346 50.578897 
L 125.741635 50.677823 
L 125.741635 50.777007 
L 126.900704 50.876451 
L 126.900704 50.976157 
L 127.807023 51.076125 
L 127.807023 51.176357 
L 129.30271 51.276855 
L 129.408178 51.478654 
L 130.342715 51.579957 
L 130.342715 51.681531 
L 131.213217 51.783378 
L 131.213217 51.885499 
L 131.609175 51.987896 
L 131.609175 52.090569 
L 132.055615 52.193522 
L 132.146869 52.400269 
L 133.035328 52.504066 
L 133.142973 52.712517 
L 133.649974 52.817174 
L 133.649974 52.92212 
L 134.468554 53.027357 
L 134.468554 53.132887 
L 135.207322 53.238711 
L 135.207322 53.344831 
L 135.536607 53.451249 
L 135.536607 53.557966 
L 135.758415 53.664984 
L 135.758415 53.772305 
L 136.200739 53.879931 
L 136.250256 54.096102 
L 136.696587 54.204652 
L 136.696587 54.313512 
L 136.959448 54.422686 
L 136.959448 54.532176 
L 138.184478 54.641982 
L 138.184478 54.752106 
L 138.888687 54.862552 
L 138.974143 55.084412 
L 139.096324 55.084412 
L 139.126912 55.307577 
L 139.513046 55.307577 
L 139.598301 55.532062 
L 140.678594 55.532062 
L 140.678594 55.644805 
L 140.800936 55.644805 
L 140.800936 55.757884 
L 141.370658 55.757884 
L 141.370658 55.871301 
L 141.690227 55.871301 
L 141.690227 55.985058 
L 142.019842 55.985058 
L 142.019842 56.099158 
L 142.305061 56.099158 
L 142.305061 56.213601 
L 142.880275 56.213601 
L 142.880275 56.328391 
L 143.85233 56.328391 
L 143.85233 56.443529 
L 144.113774 56.443529 
L 144.113774 56.559017 
L 144.344306 56.559017 
L 144.344306 56.674858 
L 145.113717 56.674858 
L 145.113717 56.791054 
L 145.253056 56.791054 
L 145.267727 57.024519 
L 145.579129 57.024519 
L 145.579129 57.141793 
L 145.731744 57.141793 
L 145.731744 57.25943 
L 145.879488 57.25943 
L 145.879488 57.377433 
L 146.140833 57.377433 
L 146.140833 57.495805 
L 146.569514 57.495805 
L 146.60134 57.733661 
L 146.754489 57.733661 
L 146.754489 57.853151 
L 146.886546 57.853151 
L 146.985627 58.093265 
L 147.149427 58.093265 
L 147.149427 58.213895 
L 147.775915 58.213895 
L 147.775915 58.334909 
L 148.233623 58.334909 
L 148.233623 58.45631 
L 148.615853 58.45631 
L 148.615853 58.578102 
L 149.687815 58.578102 
L 149.687815 58.700285 
L 150.175691 58.700285 
L 150.182719 58.945839 
L 150.403694 58.945839 
L 150.403694 59.069215 
L 151.585648 59.069215 
L 151.585648 59.192993 
L 152.398398 59.192993 
L 152.398398 59.317176 
L 152.966473 59.317176 
L 152.966473 59.441767 
L 153.144207 59.441767 
L 153.144207 59.566769 
L 153.98671 59.566769 
L 153.98671 59.692184 
L 154.299036 59.692184 
L 154.299036 59.818015 
L 154.716581 59.818015 
L 154.716581 59.944264 
L 155.213011 59.944264 
L 155.213011 60.070935 
L 155.707184 60.070935 
L 155.707184 60.198031 
L 155.883263 60.198031 
L 155.883263 60.325553 
L 156.155951 60.325553 
L 156.155951 60.453506 
L 156.389815 60.453506 
L 156.389815 60.581892 
L 156.51647 60.581892 
L 156.51647 60.710714 
L 156.78441 60.710714 
L 156.78441 60.839974 
L 157.129576 60.839974 
L 157.129576 60.969677 
L 157.492864 60.969677 
L 157.492864 61.099824 
L 157.777417 61.099824 
L 157.777417 61.23042 
L 158.453821 61.23042 
L 158.453821 61.361467 
L 159.067482 61.361467 
L 159.067482 61.492967 
L 159.731457 61.492967 
L 159.731457 61.624926 
L 160.449028 61.624926 
L 160.449028 61.757344 
L 161.086332 61.757344 
L 161.110468 62.023577 
L 161.377782 62.023577 
L 161.469774 62.291691 
L 162.364002 62.291691 
L 162.364002 62.426462 
L 163.367429 62.426462 
L 163.367429 62.561713 
L 164.031284 62.561713 
L 164.031284 62.697448 
L 164.47848 62.697448 
L 164.47848 62.833671 
L 165.384352 62.833671 
L 165.436641 63.107592 
L 165.590344 63.107592 
L 165.590344 63.245298 
L 166.260615 63.245298 
L 166.260615 63.383506 
L 167.325749 63.383506 
L 167.325749 63.522219 
L 168.042596 63.522219 
L 168.110315 63.801176 
L 168.548698 63.801176 
L 168.548698 63.941427 
L 168.815018 63.941427 
L 168.815018 64.082199 
L 169.328184 64.082199 
L 169.328184 64.223495 
L 169.655701 64.223495 
L 169.655701 64.365319 
L 169.779809 64.365319 
L 169.779809 64.507676 
L 169.985222 64.507676 
L 169.985222 64.650568 
L 170.732272 64.650568 
L 170.732272 64.794001 
L 171.141484 64.794001 
L 171.17528 65.082504 
L 171.916461 65.082504 
L 171.916461 65.227583 
L 172.185419 65.227583 
L 172.185419 65.373218 
L 172.471295 65.373218 
L 172.471295 65.519415 
L 172.790686 65.519415 
L 172.859486 65.813509 
L 172.952028 65.813509 
L 173.036399 66.408626 
L 173.474972 66.408626 
L 173.474972 66.558876 
L 173.594542 66.558876 
L 173.693658 66.861172 
L 173.95717 66.861172 
L 173.968445 67.165896 
L 174.570344 67.165896 
L 174.570344 67.319181 
L 174.761925 67.319181 
L 174.825795 67.627621 
L 175.008256 67.627621 
L 175.008256 67.782787 
L 175.300567 67.782787 
L 175.300567 67.93859 
L 175.534294 67.93859 
L 175.534294 68.095035 
L 175.840073 68.095035 
L 175.840073 68.252129 
L 176.170818 68.252129 
L 176.170818 68.409875 
L 176.690092 68.409875 
L 176.690092 68.56828 
L 176.886849 68.56828 
L 176.973941 69.047503 
L 179.128957 69.047503 
L 179.128957 69.208598 
L 179.667212 69.208598 
L 179.746945 69.696031 
L 180.211428 69.696031 
L 180.302877 70.0245 
L 180.336108 70.0245 
L 180.336108 70.189807 
L 181.169961 70.189807 
L 181.169961 70.355838 
L 181.357991 70.355838 
L 181.357991 70.522598 
L 181.493709 70.522598 
L 181.493709 70.690095 
L 181.630085 70.690095 
L 181.687657 71.027324 
L 181.885355 71.027324 
L 181.885355 71.197069 
L 182.455064 71.197069 
L 182.455064 71.367577 
L 183.796248 71.367577 
L 183.796248 71.538854 
L 184.203184 71.538854 
L 184.209876 71.883747 
L 184.610476 71.883747 
L 184.610476 72.057377 
L 185.080164 72.057377 
L 185.146532 72.407038 
L 185.75049 72.407038 
L 185.791277 72.759952 
L 186.184648 72.759952 
L 186.184648 72.937647 
L 186.379408 72.937647 
L 186.379408 73.116179 
L 186.656619 73.116179 
L 186.656619 73.295555 
L 187.176497 73.295555 
L 187.176497 73.475783 
L 188.283084 73.475783 
L 188.283084 73.656872 
L 188.590926 73.656872 
L 188.590926 73.838829 
L 189.415243 73.838829 
L 189.415243 74.021663 
L 189.541541 74.021663 
L 189.569729 74.389995 
L 189.833229 74.389995 
L 189.833229 74.575511 
L 190.463286 74.575511 
L 190.463286 74.761939 
L 191.171431 74.761939 
L 191.171431 74.949287 
L 191.628051 74.949287 
L 191.6977 75.326783 
L 191.828761 75.326783 
L 191.828761 75.516948 
L 191.977674 75.516948 
L 191.985718 75.900163 
L 192.390752 75.900163 
L 192.390752 76.093232 
L 192.571166 76.093232 
L 192.571166 76.287288 
L 192.843751 76.287288 
L 192.843751 76.482343 
L 193.187566 76.482343 
L 193.187566 76.678405 
L 193.321078 76.678405 
L 193.321078 76.875486 
L 193.827035 76.875486 
L 193.827035 77.073596 
L 194.798641 77.073596 
L 194.798641 77.272745 
L 194.91627 77.272745 
L 194.91627 77.472946 
L 196.467538 77.472946 
L 196.467538 77.674209 
L 197.272689 77.674209 
L 197.272689 77.876545 
L 197.446559 77.876545 
L 197.446559 78.079966 
L 197.645919 78.079966 
L 197.645919 78.284484 
L 199.308805 78.284484 
L 199.308805 78.490111 
L 200.064883 78.490111 
L 200.064883 78.696857 
L 200.669735 78.696857 
L 200.751714 79.113762 
L 201.29743 79.113762 
L 201.29743 79.323945 
L 201.992961 79.323945 
L 202.024165 79.961573 
L 202.395184 79.961573 
L 202.395184 80.17652 
L 203.192164 80.17652 
L 203.192164 80.392691 
L 203.78856 80.392691 
L 203.806902 80.828764 
L 204.535662 80.828764 
L 204.535662 81.048695 
L 204.75418 81.048695 
L 204.75418 81.269908 
L 205.277739 81.269908 
L 205.277739 81.492419 
L 206.007072 81.492419 
L 206.007072 81.716242 
L 206.257615 81.716242 
L 206.338196 82.16789 
L 206.47019 82.16789 
L 206.47019 82.395746 
L 206.925051 82.395746 
L 206.925051 82.624979 
L 207.142175 82.624979 
L 207.142175 82.855606 
L 207.842842 82.855606 
L 207.842842 83.087643 
L 208.186603 83.087643 
L 208.186603 83.321108 
L 208.822561 83.321108 
L 208.822561 83.556019 
L 208.937775 83.556019 
L 208.937775 83.792393 
L 209.861592 83.792393 
L 209.861592 84.03025 
L 210.385225 84.03025 
L 210.400362 84.510483 
L 210.605352 84.510483 
L 210.605352 84.752899 
L 211.047755 84.752899 
L 211.047755 84.996874 
L 211.286471 84.996874 
L 211.311138 85.489582 
L 211.599988 85.489582 
L 211.599988 85.738356 
L 211.909098 85.738356 
L 211.909098 85.988773 
L 212.377052 85.988773 
L 212.380767 86.49462 
L 212.630439 86.49462 
L 212.630439 86.750095 
L 213.928353 86.750095 
L 213.928353 87.007302 
L 214.315789 87.007302 
L 214.315789 87.266266 
L 214.459895 87.266266 
L 214.459895 87.527009 
L 215.274109 87.527009 
L 215.274109 87.789556 
L 215.545235 87.789556 
L 215.545235 88.053933 
L 219.38054 88.053933 
L 219.38054 88.320166 
L 219.835065 88.320166 
L 219.835065 88.588279 
L 220.127368 88.588279 
L 220.156882 89.130259 
L 220.55543 89.130259 
L 220.55543 89.404181 
L 220.761699 89.404181 
L 220.761699 89.680095 
L 220.98324 89.680095 
L 220.98324 89.95803 
L 221.293499 89.95803 
L 221.293499 90.238016 
L 221.464563 90.238016 
L 221.464563 90.520084 
L 222.074547 90.520084 
L 222.074547 90.804264 
L 224.277942 90.804264 
L 224.277942 91.09059 
L 224.466882 91.09059 
L 224.466882 91.379093 
L 225.106419 91.379093 
L 225.11878 91.962765 
L 226.435427 91.962765 
L 226.435427 92.258004 
L 227.21323 92.258004 
L 227.21323 92.555558 
L 229.411676 92.555558 
L 229.411676 92.855464 
L 229.769551 92.855464 
L 229.769551 93.157761 
L 230.058128 93.157761 
L 230.058128 93.462485 
L 231.638472 93.462485 
L 231.638472 93.769676 
L 233.135901 93.769676 
L 233.135901 94.079376 
L 234.713329 94.079376 
L 234.713329 94.391624 
L 235.465327 94.391624 
L 235.465327 94.706464 
L 235.874208 94.706464 
L 235.874208 95.023938 
L 236.21383 95.023938 
L 236.21383 95.344091 
L 237.847994 95.344091 
L 237.847994 95.66697 
L 238.622496 95.66697 
L 238.622496 95.992619 
L 238.966901 95.992619 
L 238.966901 96.321089 
L 239.862439 96.321089 
L 239.862439 96.652427 
L 240.411728 96.652427 
L 240.411728 96.986684 
L 241.151237 96.986684 
L 241.151237 97.323912 
L 241.270153 97.323912 
L 241.37073 98.007498 
L 241.949065 98.007498 
L 241.949065 98.353965 
L 242.400627 98.353965 
L 242.400627 98.703627 
L 243.969122 98.703627 
L 243.969122 99.05654 
L 245.313134 99.05654 
L 245.313134 99.412768 
L 245.651382 99.412768 
L 245.651382 99.772372 
L 247.111336 99.772372 
L 247.111336 100.135417 
L 249.159869 100.135417 
L 249.159869 100.501971 
L 251.261319 100.501971 
L 251.315118 101.245876 
L 255.090335 101.245876 
L 255.090335 101.623371 
L 256.940433 101.623371 
L 256.940433 102.00466 
L 258.704264 102.00466 
L 258.704264 102.389821 
L 259.491178 102.389821 
L 259.491178 102.778931 
L 263.702685 102.778931 
L 263.702685 103.172074 
L 264.461752 103.172074 
L 264.461752 103.569334 
L 264.952432 103.569334 
L 265.035392 104.376555 
L 267.112712 104.376555 
L 267.112712 104.786699 
L 267.279798 104.786699 
L 267.279798 105.201326 
L 267.454 105.201326 
L 267.454 105.620534 
L 270.455186 105.620534 
L 270.455186 106.044426 
L 270.759068 106.044426 
L 270.766155 106.90669 
L 273.211276 106.90669 
L 273.211276 107.345284 
L 274.450644 107.345284 
L 274.450644 107.789008 
L 278.474944 107.789008 
L 278.474944 108.237983 
L 278.713838 108.237983 
L 278.762835 109.152195 
L 279.287951 109.152195 
L 279.287951 109.617697 
L 280.175225 109.617697 
L 280.175225 110.088982 
L 280.355156 110.088982 
L 280.355156 110.566195 
L 284.799639 110.566195 
L 284.799639 111.049488 
L 287.582862 111.049488 
L 287.582862 111.539017 
L 288.603334 111.539017 
L 288.603334 112.034945 
L 289.20229 112.034945 
L 289.20229 112.537442 
L 291.794906 112.537442 
L 291.794906 113.046684 
L 292.949815 113.046684 
L 292.949815 113.562854 
L 293.596165 113.562854 
L 293.596165 114.086145 
L 297.127859 114.086145 
L 297.127859 114.616754 
L 300.704514 114.616754 
L 300.704514 115.15489 
L 304.65319 115.15489 
L 304.65319 115.70077 
L 304.870248 115.70077 
L 304.870248 116.254618 
L 307.686537 116.254618 
L 307.686537 116.816672 
L 312.17092 116.816672 
L 312.17092 117.387179 
L 312.966664 117.387179 
L 312.966664 117.966396 
L 316.632678 117.966396 
L 316.632678 118.554593 
L 317.084226 118.554593 
L 317.084226 119.152053 
L 317.375567 119.152053 
L 317.375567 119.759073 
L 320.275955 119.759073 
L 320.275955 120.375964 
L 323.17083 120.375964 
L 323.17083 121.003052 
L 323.586748 121.003052 
L 323.586748 121.64068 
L 326.302894 121.64068 
L 326.302894 122.289208 
L 326.678363 122.289208 
L 326.678363 122.949015 
L 328.731019 122.949015 
L 328.731019 123.620501 
L 331.06312 123.620501 
L 331.06312 124.304086 
L 331.867834 124.304086 
L 331.867834 125.000215 
L 332.775698 125.000215 
L 332.775698 125.709357 
L 336.602077 125.709357 
L 336.602077 126.432006 
L 340.581797 126.432006 
L 340.581797 127.168689 
L 344.644022 127.168689 
L 344.644022 127.91996 
L 344.905204 127.91996 
L 344.905204 128.686409 
L 348.624509 128.686409 
L 348.624509 129.468663 
L 349.377608 129.468663 
L 349.377608 130.267386 
L 350.275099 130.267386 
L 350.275099 131.083288 
L 351.173473 131.083288 
L 351.173473 131.917123 
L 353.710279 131.917123 
L 353.710279 132.769697 
L 356.327287 132.769697 
L 356.327287 133.641872 
L 356.636495 133.641872 
L 356.636495 134.534571 
L 358.668551 134.534571 
L 358.668551 135.448783 
L 359.724437 135.448783 
L 359.724437 136.385571 
L 362.3475 136.385571 
L 362.3475 137.346077 
L 368.467002 137.346077 
L 368.467002 138.331534 
L 369.963693 138.331534 
L 369.963693 139.343272 
L 373.02124 139.343272 
L 373.02124 140.382734 
L 380.368707 140.382734 
L 380.368707 141.451479 
L 382.383452 141.451479 
L 382.383452 142.551207 
L 387.240444 142.551207 
L 387.240444 143.683768 
L 388.043649 143.683768 
L 388.043649 144.851181 
L 389.676439 144.851181 
L 389.676439 146.055662 
L 391.998075 146.055662 
L 391.998075 147.299641 
L 394.308416 147.299641 
L 394.308416 148.585797 
L 395.249621 148.585797 
L 395.249621 149.91709 
L 396.988629 149.91709 
L 396.988629 151.296804 
L 397.646544 151.296804 
L 397.646544 152.728595 
L 416.627656 152.728595 
L 416.627656 154.216549 
L 418.068292 154.216549 
L 418.068292 155.765252 
L 422.997957 155.765252 
L 422.997957 157.379877 
L 424.291553 157.379877 
L 424.291553 159.066286 
L 435.15025 159.066286 
L 435.15025 160.83116 
L 438.391783 160.83116 
L 438.391783 162.682159 
L 442.758201 162.682159 
L 442.758201 164.628122 
L 456.831573 164.628122 
L 456.831573 166.679322 
L 459.005905 166.679322 
L 459.005905 168.847796 
L 466.834489 168.847796 
L 466.834489 276.334125 
L 466.834489 276.334125 
" clip-path="url(#pb375dde3a2)" style="fill: none; stroke: #b63a2b; stroke-width: 2; stroke-linecap: square"/>
   </g>
   <g id="patch_3">
    <path d="M 51.378125 288.430125 
L 51.378125 22.318125 
" style="fill: none; stroke: #000000; stroke-width: 0.8; stroke-linejoin: miter; stroke-linecap: square"/>
   </g>
   <g id="patch_4">
    <path d="M 486.618125 288.430125 
L 486.618125 22.318125 
" style="fill: none; stroke: #000000; stroke-width: 0.8; stroke-linejoin: miter; stroke-linecap: square"/>
   </g>
   <g id="patch_5">
    <path d="M 51.378125 288.430125 
L 486.618125 288.430125 
" style="fill: none; stroke: #000000; stroke-width: 0.8; stroke-linejoin: miter; stroke-linecap: square"/>
   </g>
   <g id="patch_6">
    <path d="M 51.378125 22.318125 
L 486.618125 22.318125 
" style="fill: none; stroke: #000000; stroke-width: 0.8; stroke-linejoin: miter; stroke-linecap: square"/>
   </g>
   <g id="text_12">
    <g id="patch_7">
     <path d="M 68.787725 271.883899 
L 219.081006 271.883899 
Q 222.056006 271.883899 222.056006 268.908899 
L 222.056006 251.164352 
Q 222.056006 248.189352 219.081006 248.189352 
L 68.787725 248.189352 
Q 65.812725 248.189352 65.812725 251.164352 
L 65.812725 268.908899 
Q 65.812725 271.883899 68.787725 271.883899 
z
" style="fill: #ffffff; opacity: 0.9; stroke: #cccccc; stroke-linejoin: miter"/>
    </g>
    <!-- P(no loss): 100.0% low, 97.6% high -->
    <g transform="translate(68.787725 257.623024) scale(0.085 -0.085)">
     <defs>
      <path id="DejaVuSans-3a" d="M 750 794 
L 1409 794 
L 1409 0 
L 750 0 
L 750 794 
z
M 750 3309 
L 1409 3309 
L 1409 2516 
L 750 2516 
L 750 3309 
z
" transform="scale(0.015625)"/>
      <path id="DejaVuSans-2e" d="M 684 794 
L 1344 794 
L 1344 0 
L 684 0 
L 684 794 
z
" transform="scale(0.015625)"/>
      <path id="DejaVuSans-77" d="M 269 3500 
L 844 3500 
L 1563 769 
L 2278 3500 
L 2956 3500 
L 3675 769 
L 4391 3500 
L 4966 3500 
L 4050 0 
L 3372 0 
L 2619 2869 
L 1863 0 
L 1184 0 
L 269 3500 
z
" transform="scale(0.015625)"/>
      <path id="DejaVuSans-2c" d="M 750 794 
L 1409 794 
L 1409 256 
L 897 -744 
L 494 -744 
L 750 256 
L 750 794 
z
" transform="scale(0.015625)"/>
      <path id="DejaVuSans-39" d="M 703 97 
L 703 672 
Q 941 559 1184 500 
Q 1428 441 1663 441 
Q 2288 441 2617 861 
Q 2947 1281 2994 2138 
Q 2813 1869 2534 1725 
Q 2256 1581 1919 1581 
Q 1219 1581 811 2004 
Q 403 2428 403 3163 
Q 403 3881 828 4315 
Q 1253 4750 1959 4750 
Q 2769 4750 3195 4129 
Q 3622 3509 3622 2328 
Q 3622 1225 3098 567 
Q 2575 -91 1691 -91 
Q 1453 -91 1209 -44 
Q 966 3 703 97 
z
M 1959 2075 
Q 2384 2075 2632 2365 
Q 2881 2656 2881 3163 
Q 2881 3666 2632 3958 
Q 2384 4250 1959 4250 
Q 1534 4250 1286 3958 
Q 1038 3666 1038 3163 
Q 1038 2656 1286 2365 
Q 1534 2075 1959 2075 
z
" transform="scale(0.015625)"/>
      <path id="DejaVuSans-37" d="M 525 4666 
L 3525 4666 
L 3525 4397 
L 1831 0 
L 1172 0 
L 2766 4134 
L 525 4134 
L 525 4666 
z
" transform="scale(0.015625)"/>
      <path id="DejaVuSans-67" d="M 2906 1791 
Q 2906 2416 2648 2759 
Q 2391 3103 1925 3103 
Q 1463 3103 1205 2759 
Q 947 2416 947 1791 
Q 947 1169 1205 825 
Q 1463 481 1925 481 
Q 2391 481 2648 825 
Q 2906 1169 2906 1791 
z
M 3481 434 
Q 3481 -459 3084 -895 
Q 2688 -1331 1869 -1331 
Q 1566 -1331 1297 -1286 
Q 1028 -1241 775 -1147 
L 775 -588 
Q 1028 -725 1275 -790 
Q 1522 -856 1778 -856 
Q 2344 -856 2625 -561 
Q 2906 -266 2906 331 
L 2906 616 
Q 2728 306 2450 153 
Q 2172 0 1784 0 
Q 1141 0 747 490 
Q 353 981 353 1791 
Q 353 2603 747 3093 
Q 1141 3584 1784 3584 
Q 2172 3584 2450 3431 
Q 2728 3278 2906 2969 
L 2906 3500 
L 3481 3500 
L 3481 434 
z
" transform="scale(0.015625)"/>
     </defs>
     <use xlink:href="#DejaVuSans-50"/>
     <use xlink:href="#DejaVuSans-28" x="60.302734"/>
     <use xlink:href="#DejaVuSans-6e" x="99.316406"/>
     <use xlink:href="#DejaVuSans-6f" x="162.695312"/>
     <use xlink:href="#DejaVuSans-20" x="223.876953"/>
     <use xlink:href="#DejaVuSans-6c" x="255.664062"/>
     <use xlink:href="#DejaVuSans-6f" x="283.447266"/>
     <use xlink:href="#DejaVuSans-73" x="344.628906"/>
     <use xlink:href="#DejaVuSans-73" x="396.728516"/>
     <use xlink:href="#DejaVuSans-29" x="448.828125"/>
     <use xlink:href="#DejaVuSans-3a" x="487.841797"/>
     <use xlink:href="#DejaVuSans-20" x="521.533203"/>
     <use xlink:href="#DejaVuSans-31" x="553.320312"/>
     <use xlink:href="#DejaVuSans-30" x="616.943359"/>
     <use xlink:href="#DejaVuSans-30" x="680.566406"/>
     <use xlink:href="#DejaVuSans-2e" x="744.189453"/>
     <use xlink:href="#DejaVuSans-30" x="775.976562"/>
     <use xlink:href="#DejaVuSans-25" x="839.599609"/>
     <use xlink:href="#DejaVuSans-20" x="934.619141"/>
     <use xlink:href="#DejaVuSans-6c" x="966.40625"/>
     <use xlink:href="#DejaVuSans-6f" x="994.189453"/>
     <use xlink:href="#DejaVuSans-77" x="1055.371094"/>
     <use xlink:href="#DejaVuSans-2c" x="1137.158203"/>
     <use xlink:href="#DejaVuSans-20" x="1168.945312"/>
     <use xlink:href="#DejaVuSans-39" x="1200.732422"/>
     <use xlink:href="#DejaVuSans-37" x="1264.355469"/>
     <use xlink:href="#DejaVuSans-2e" x="1327.978516"/>
     <use xlink:href="#DejaVuSans-36" x="1359.765625"/>
     <use xlink:href="#DejaVuSans-25" x="1423.388672"/>
     <use xlink:href="#DejaVuSans-20" x="1518.408203"/>
     <use xlink:href="#DejaVuSans-68" x="1550.195312"/>
     <use xlink:href="#DejaVuSans-69" x="1613.574219"/>
     <use xlink:href="#DejaVuSans-67" x="1641.357422"/>
     <use xlink:href="#DejaVuSans-68" x="1704.833984"/>
    </g>
    <!-- 99% loss: 0.0% low, 25.9% high -->
    <g transform="translate(68.787725 267.141165) scale(0.085 -0.085)">
     <defs>
      <path id="DejaVuSans-35" d="M 691 4666 
L 3169 4666 
L 3169 4134 
L 1269 4134 
L 1269 2991 
Q 1406 3038 1543 3061 
Q 1681 3084 1819 3084 
Q 2600 3084 3056 2656 
Q 3513 2228 3513 1497 
Q 3513 744 3044 326 
Q 2575 -91 1722 -91 
Q 1428 -91 1123 -41 
Q 819 9 494 109 
L 494 744 
Q 775 591 1075 516 
Q 1375 441 1709 441 
Q 2250 441 2565 725 
Q 2881 1009 2881 1497 
Q 2881 1984 2565 2268 
Q 2250 2553 1709 2553 
Q 1456 2553 1204 2497 
Q 953 2441 691 2322 
L 691 4666 
z
" transform="scale(0.015625)"/>
     </defs>
     <use xlink:href="#DejaVuSans-39"/>
     <use xlink:href="#DejaVuSans-39" x="63.623047"/>
     <use xlink:href="#DejaVuSans-25" x="127.246094"/>
     <use xlink:href="#DejaVuSans-20" x="222.265625"/>
     <use xlink:href="#DejaVuSans-6c" x="254.052734"/>
     <use xlink:href="#DejaVuSans-6f" x="281.835938"/>
     <use xlink:href="#DejaVuSans-73" x="343.017578"/>
     <use xlink:href="#DejaVuSans-73" x="395.117188"/>
     <use xlink:href="#DejaVuSans-3a" x="447.216797"/>
     <use xlink:href="#DejaVuSans-20" x="480.908203"/>
     <use xlink:href="#DejaVuSans-30" x="512.695312"/>
     <use xlink:href="#DejaVuSans-2e" x="576.318359"/>
     <use xlink:href="#DejaVuSans-30" x="608.105469"/>
     <use xlink:href="#DejaVuSans-25" x="671.728516"/>
     <use xlink:href="#DejaVuSans-20" x="766.748047"/>
     <use xlink:href="#DejaVuSans-6c" x="798.535156"/>
     <use xlink:href="#DejaVuSans-6f" x="826.318359"/>
     <use xlink:href="#DejaVuSans-77" x="887.5"/>
     <use xlink:href="#DejaVuSans-2c" x="969.287109"/>
     <use xlink:href="#DejaVuSans-20" x="1001.074219"/>
     <use xlink:href="#DejaVuSans-32" x="1032.861328"/>
     <use xlink:href="#DejaVuSans-35" x="1096.484375"/>
     <use xlink:href="#DejaVuSans-2e" x="1160.107422"/>
     <use xlink:href="#DejaVuSans-39" x="1191.894531"/>
     <use xlink:href="#DejaVuSans-25" x="1255.517578"/>
     <use xlink:href="#DejaVuSans-20" x="1350.537109"/>
     <use xlink:href="#DejaVuSans-68" x="1382.324219"/>
     <use xlink:href="#DejaVuSans-69" x="1445.703125"/>
     <use xlink:href="#DejaVuSans-67" x="1473.486328"/>
     <use xlink:href="#DejaVuSans-68" x="1536.962891"/>
    </g>
   </g>
   <g id="text_13">
    <!-- Senior positive-loss survival function -->
    <g transform="translate(158.863438 16.318125) scale(0.12 -0.12)">
     <defs>
      <path id="DejaVuSans-76" d="M 191 3500 
L 800 3500 
L 1894 563 
L 2988 3500 
L 3597 3500 
L 2284 0 
L 1503 0 
L 191 3500 
z
" transform="scale(0.015625)"/>
      <path id="DejaVuSans-2d" d="M 313 2009 
L 1997 2009 
L 1997 1497 
L 313 1497 
L 313 2009 
z
" transform="scale(0.015625)"/>
      <path id="DejaVuSans-75" d="M 544 1381 
L 544 3500 
L 1119 3500 
L 1119 1403 
Q 1119 906 1312 657 
Q 1506 409 1894 409 
Q 2359 409 2629 706 
Q 2900 1003 2900 1516 
L 2900 3500 
L 3475 3500 
L 3475 0 
L 2900 0 
L 2900 538 
Q 2691 219 2414 64 
Q 2138 -91 1772 -91 
Q 1169 -91 856 284 
Q 544 659 544 1381 
z
M 1991 3584 
L 1991 3584 
z
" transform="scale(0.015625)"/>
      <path id="DejaVuSans-66" d="M 2375 4863 
L 2375 4384 
L 1825 4384 
Q 1516 4384 1395 4259 
Q 1275 4134 1275 3809 
L 1275 3500 
L 2222 3500 
L 2222 3053 
L 1275 3053 
L 1275 0 
L 697 0 
L 697 3053 
L 147 3053 
L 147 3500 
L 697 3500 
L 697 3744 
Q 697 4328 969 4595 
Q 1241 4863 1831 4863 
L 2375 4863 
z
" transform="scale(0.015625)"/>
     </defs>
     <use xlink:href="#DejaVuSans-53"/>
     <use xlink:href="#DejaVuSans-65" x="63.476562"/>
     <use xlink:href="#DejaVuSans-6e" x="125"/>
     <use xlink:href="#DejaVuSans-69" x="188.378906"/>
     <use xlink:href="#DejaVuSans-6f" x="216.162109"/>
     <use xlink:href="#DejaVuSans-72" x="277.34375"/>
     <use xlink:href="#DejaVuSans-20" x="318.457031"/>
     <use xlink:href="#DejaVuSans-70" x="350.244141"/>
     <use xlink:href="#DejaVuSans-6f" x="413.720703"/>
     <use xlink:href="#DejaVuSans-73" x="474.902344"/>
     <use xlink:href="#DejaVuSans-69" x="527.001953"/>
     <use xlink:href="#DejaVuSans-74" x="554.785156"/>
     <use xlink:href="#DejaVuSans-69" x="593.994141"/>
     <use xlink:href="#DejaVuSans-76" x="621.777344"/>
     <use xlink:href="#DejaVuSans-65" x="680.957031"/>
     <use xlink:href="#DejaVuSans-2d" x="742.480469"/>
     <use xlink:href="#DejaVuSans-6c" x="778.564453"/>
     <use xlink:href="#DejaVuSans-6f" x="806.347656"/>
     <use xlink:href="#DejaVuSans-73" x="867.529297"/>
     <use xlink:href="#DejaVuSans-73" x="919.628906"/>
     <use xlink:href="#DejaVuSans-20" x="971.728516"/>
     <use xlink:href="#DejaVuSans-73" x="1003.515625"/>
     <use xlink:href="#DejaVuSans-75" x="1055.615234"/>
     <use xlink:href="#DejaVuSans-72" x="1118.994141"/>
     <use xlink:href="#DejaVuSans-76" x="1160.107422"/>
     <use xlink:href="#DejaVuSans-69" x="1219.287109"/>
     <use xlink:href="#DejaVuSans-76" x="1247.070312"/>
     <use xlink:href="#DejaVuSans-61" x="1306.25"/>
     <use xlink:href="#DejaVuSans-6c" x="1367.529297"/>
     <use xlink:href="#DejaVuSans-20" x="1395.3125"/>
     <use xlink:href="#DejaVuSans-66" x="1427.099609"/>
     <use xlink:href="#DejaVuSans-75" x="1462.304688"/>
     <use xlink:href="#DejaVuSans-6e" x="1525.683594"/>
     <use xlink:href="#DejaVuSans-63" x="1589.0625"/>
     <use xlink:href="#DejaVuSans-74" x="1644.042969"/>
     <use xlink:href="#DejaVuSans-69" x="1683.251953"/>
     <use xlink:href="#DejaVuSans-6f" x="1711.035156"/>
     <use xlink:href="#DejaVuSans-6e" x="1772.216797"/>
    </g>
   </g>
   <g id="legend_1">
    <g id="line2d_45">
     <path d="M 407.063438 35.416562 
L 417.063438 35.416562 
L 417.063438 35.416562 
L 427.063438 35.416562 
L 427.063438 35.416562 
" style="fill: none; stroke: #b63a2b; stroke-width: 2; stroke-linecap: square"/>
    </g>
    <g id="text_14">
     <!-- High rho -->
     <g transform="translate(435.063438 38.916562) scale(0.1 -0.1)">
      <defs>
       <path id="DejaVuSans-48" d="M 628 4666 
L 1259 4666 
L 1259 2753 
L 3553 2753 
L 3553 4666 
L 4184 4666 
L 4184 0 
L 3553 0 
L 3553 2222 
L 1259 2222 
L 1259 0 
L 628 0 
L 628 4666 
z
" transform="scale(0.015625)"/>
      </defs>
      <use xlink:href="#DejaVuSans-48"/>
      <use xlink:href="#DejaVuSans-69" x="75.195312"/>
      <use xlink:href="#DejaVuSans-67" x="102.978516"/>
      <use xlink:href="#DejaVuSans-68" x="166.455078"/>
      <use xlink:href="#DejaVuSans-20" x="229.833984"/>
      <use xlink:href="#DejaVuSans-72" x="261.621094"/>
      <use xlink:href="#DejaVuSans-68" x="300.984375"/>
      <use xlink:href="#DejaVuSans-6f" x="364.363281"/>
     </g>
    </g>
   </g>
  </g>
 </g>
 <defs>
  <clipPath id="pb375dde3a2">
   <rect x="51.378125" y="22.318125" width="435.24" height="266.112"/>
  </clipPath>
 </defs>
</svg>
